<mxfile host="app.diagrams.net" modified="2024-07-17T08:03:14.586Z" agent="Mozilla/5.0 (Windows NT 10.0; Win64; x64) AppleWebKit/537.36 (KHTML, like Gecko) Chrome/126.0.0.0 Safari/537.36 Edg/126.0.0.0" etag="aw2w8LqmuKFkz05DsWHD" version="24.6.5" type="device">
  <diagram name="第 1 页" id="SpG_CjK6WttCDldTu6Ho">
    <mxGraphModel dx="179" dy="99" grid="1" gridSize="1" guides="1" tooltips="1" connect="1" arrows="1" fold="1" page="0" pageScale="1" pageWidth="827" pageHeight="1169" math="0" shadow="0">
      <root>
        <mxCell id="0" />
        <mxCell id="1" parent="0" />
        <mxCell id="_7fe_W0GbUUQAUtH2pbY-1" value="&lt;font style=&quot;font-size: 20px;&quot;&gt;W800&lt;/font&gt;" style="rounded=1;whiteSpace=wrap;html=1;shadow=1;glass=0;fillColor=#E6E6E6;" vertex="1" parent="1">
          <mxGeometry x="42" y="240" width="198" height="200" as="geometry" />
        </mxCell>
        <mxCell id="_7fe_W0GbUUQAUtH2pbY-42" style="edgeStyle=orthogonalEdgeStyle;rounded=0;orthogonalLoop=1;jettySize=auto;html=1;endArrow=classic;endFill=1;endSize=3;strokeWidth=2;fillColor=#a20025;strokeColor=#6F0000;" edge="1" parent="1">
          <mxGeometry relative="1" as="geometry">
            <mxPoint x="240" y="260" as="sourcePoint" />
            <mxPoint x="397" y="260" as="targetPoint" />
          </mxGeometry>
        </mxCell>
        <mxCell id="_7fe_W0GbUUQAUtH2pbY-4" value="SCLK" style="text;html=1;align=left;verticalAlign=middle;whiteSpace=wrap;rounded=0;flipV=0;" vertex="1" parent="1">
          <mxGeometry x="201" y="250" width="30" height="20" as="geometry" />
        </mxCell>
        <mxCell id="_7fe_W0GbUUQAUtH2pbY-43" style="edgeStyle=orthogonalEdgeStyle;rounded=0;orthogonalLoop=1;jettySize=auto;html=1;endSize=3;strokeWidth=2;fillColor=#a20025;strokeColor=#6F0000;" edge="1" parent="1">
          <mxGeometry relative="1" as="geometry">
            <mxPoint x="240" y="292" as="sourcePoint" />
            <mxPoint x="398" y="292" as="targetPoint" />
          </mxGeometry>
        </mxCell>
        <mxCell id="_7fe_W0GbUUQAUtH2pbY-5" value="MOSI" style="text;html=1;align=left;verticalAlign=middle;whiteSpace=wrap;rounded=0;flipV=0;" vertex="1" parent="1">
          <mxGeometry x="201" y="282" width="30" height="20" as="geometry" />
        </mxCell>
        <mxCell id="_7fe_W0GbUUQAUtH2pbY-44" style="edgeStyle=orthogonalEdgeStyle;rounded=0;orthogonalLoop=1;jettySize=auto;html=1;entryX=0;entryY=0.5;entryDx=0;entryDy=0;endSize=6;startArrow=classic;startFill=1;endArrow=none;endFill=0;startSize=3;strokeWidth=2;fillColor=#a20025;strokeColor=#6F0000;" edge="1" parent="1" target="_7fe_W0GbUUQAUtH2pbY-13">
          <mxGeometry relative="1" as="geometry">
            <mxPoint x="240" y="324" as="sourcePoint" />
          </mxGeometry>
        </mxCell>
        <mxCell id="_7fe_W0GbUUQAUtH2pbY-6" value="MISO" style="text;html=1;align=left;verticalAlign=middle;whiteSpace=wrap;rounded=0;flipV=0;" vertex="1" parent="1">
          <mxGeometry x="201" y="314" width="30" height="20" as="geometry" />
        </mxCell>
        <mxCell id="_7fe_W0GbUUQAUtH2pbY-7" value="SS0" style="text;html=1;align=left;verticalAlign=middle;whiteSpace=wrap;rounded=0;flipV=0;" vertex="1" parent="1">
          <mxGeometry x="201" y="346" width="20" height="20" as="geometry" />
        </mxCell>
        <mxCell id="_7fe_W0GbUUQAUtH2pbY-8" value="SS1" style="text;html=1;align=left;verticalAlign=middle;whiteSpace=wrap;rounded=0;flipV=0;" vertex="1" parent="1">
          <mxGeometry x="201" y="378" width="20" height="20" as="geometry" />
        </mxCell>
        <mxCell id="_7fe_W0GbUUQAUtH2pbY-9" value="SS2" style="text;html=1;align=left;verticalAlign=middle;whiteSpace=wrap;rounded=0;flipV=0;" vertex="1" parent="1">
          <mxGeometry x="201" y="410" width="20" height="20" as="geometry" />
        </mxCell>
        <mxCell id="_7fe_W0GbUUQAUtH2pbY-10" value="&lt;font style=&quot;font-size: 16px;&quot;&gt;设备1&lt;/font&gt;" style="rounded=1;whiteSpace=wrap;html=1;shadow=1;fillColor=#f5f5f5;fontColor=#333333;strokeColor=#666666;" vertex="1" parent="1">
          <mxGeometry x="400" y="240" width="120" height="120" as="geometry" />
        </mxCell>
        <mxCell id="_7fe_W0GbUUQAUtH2pbY-11" value="SCLK" style="text;html=1;align=left;verticalAlign=middle;whiteSpace=wrap;rounded=0;flipV=0;" vertex="1" parent="1">
          <mxGeometry x="404" y="250" width="30" height="20" as="geometry" />
        </mxCell>
        <mxCell id="_7fe_W0GbUUQAUtH2pbY-12" value="SDI" style="text;html=1;align=left;verticalAlign=middle;whiteSpace=wrap;rounded=0;flipV=0;" vertex="1" parent="1">
          <mxGeometry x="404" y="282" width="30" height="20" as="geometry" />
        </mxCell>
        <mxCell id="_7fe_W0GbUUQAUtH2pbY-13" value="SDO" style="text;html=1;align=left;verticalAlign=middle;whiteSpace=wrap;rounded=0;flipV=0;" vertex="1" parent="1">
          <mxGeometry x="404" y="314" width="30" height="20" as="geometry" />
        </mxCell>
        <mxCell id="_7fe_W0GbUUQAUtH2pbY-14" value="CS" style="text;html=1;align=left;verticalAlign=middle;whiteSpace=wrap;rounded=0;flipV=0;" vertex="1" parent="1">
          <mxGeometry x="404" y="340" width="20" height="20" as="geometry" />
        </mxCell>
        <mxCell id="_7fe_W0GbUUQAUtH2pbY-45" value="&lt;font style=&quot;font-size: 16px;&quot;&gt;设备2&lt;/font&gt;" style="rounded=1;whiteSpace=wrap;html=1;shadow=1;fillColor=#f5f5f5;fontColor=#333333;strokeColor=#666666;" vertex="1" parent="1">
          <mxGeometry x="400" y="378" width="120" height="120" as="geometry" />
        </mxCell>
        <mxCell id="_7fe_W0GbUUQAUtH2pbY-46" value="SCLK" style="text;html=1;align=left;verticalAlign=middle;whiteSpace=wrap;rounded=0;flipV=0;" vertex="1" parent="1">
          <mxGeometry x="403" y="388" width="30" height="20" as="geometry" />
        </mxCell>
        <mxCell id="_7fe_W0GbUUQAUtH2pbY-47" value="SDI" style="text;html=1;align=left;verticalAlign=middle;whiteSpace=wrap;rounded=0;flipV=0;" vertex="1" parent="1">
          <mxGeometry x="403" y="418" width="30" height="20" as="geometry" />
        </mxCell>
        <mxCell id="_7fe_W0GbUUQAUtH2pbY-48" value="SDO" style="text;html=1;align=left;verticalAlign=middle;whiteSpace=wrap;rounded=0;flipV=0;" vertex="1" parent="1">
          <mxGeometry x="403" y="448" width="30" height="20" as="geometry" />
        </mxCell>
        <mxCell id="_7fe_W0GbUUQAUtH2pbY-49" value="CS" style="text;html=1;align=left;verticalAlign=middle;whiteSpace=wrap;rounded=0;flipV=0;" vertex="1" parent="1">
          <mxGeometry x="403" y="478" width="20" height="20" as="geometry" />
        </mxCell>
        <mxCell id="_7fe_W0GbUUQAUtH2pbY-50" value="&lt;font style=&quot;font-size: 16px;&quot;&gt;设备3&lt;/font&gt;" style="rounded=1;whiteSpace=wrap;html=1;shadow=1;fillColor=#f5f5f5;fontColor=#333333;strokeColor=#666666;" vertex="1" parent="1">
          <mxGeometry x="400" y="520" width="120" height="120" as="geometry" />
        </mxCell>
        <mxCell id="_7fe_W0GbUUQAUtH2pbY-51" value="SCLK" style="text;html=1;align=left;verticalAlign=middle;whiteSpace=wrap;rounded=0;flipV=0;" vertex="1" parent="1">
          <mxGeometry x="403" y="530" width="30" height="20" as="geometry" />
        </mxCell>
        <mxCell id="_7fe_W0GbUUQAUtH2pbY-52" value="SDI" style="text;html=1;align=left;verticalAlign=middle;whiteSpace=wrap;rounded=0;flipV=0;" vertex="1" parent="1">
          <mxGeometry x="403" y="560" width="30" height="20" as="geometry" />
        </mxCell>
        <mxCell id="_7fe_W0GbUUQAUtH2pbY-53" value="SDO" style="text;html=1;align=left;verticalAlign=middle;whiteSpace=wrap;rounded=0;flipV=0;" vertex="1" parent="1">
          <mxGeometry x="403" y="590" width="30" height="20" as="geometry" />
        </mxCell>
        <mxCell id="_7fe_W0GbUUQAUtH2pbY-54" value="CS" style="text;html=1;align=left;verticalAlign=middle;whiteSpace=wrap;rounded=0;flipV=0;" vertex="1" parent="1">
          <mxGeometry x="403" y="620" width="20" height="20" as="geometry" />
        </mxCell>
        <mxCell id="_7fe_W0GbUUQAUtH2pbY-55" value="" style="endArrow=oval;html=1;rounded=0;endFill=1;startArrow=classic;startFill=1;startSize=3;endSize=5;exitX=0;exitY=0.5;exitDx=0;exitDy=0;strokeWidth=2;fillColor=#a20025;strokeColor=#6F0000;" edge="1" parent="1">
          <mxGeometry width="50" height="50" relative="1" as="geometry">
            <mxPoint x="398" y="540" as="sourcePoint" />
            <mxPoint x="335" y="260" as="targetPoint" />
            <Array as="points">
              <mxPoint x="335" y="540" />
            </Array>
          </mxGeometry>
        </mxCell>
        <mxCell id="_7fe_W0GbUUQAUtH2pbY-56" value="" style="edgeStyle=none;orthogonalLoop=1;jettySize=auto;html=1;rounded=0;startSize=5;startArrow=oval;startFill=1;endSize=3;entryX=0;entryY=0.5;entryDx=0;entryDy=0;strokeWidth=2;fillColor=#a20025;strokeColor=#6F0000;" edge="1" parent="1">
          <mxGeometry width="100" relative="1" as="geometry">
            <mxPoint x="335" y="398" as="sourcePoint" />
            <mxPoint x="398" y="398.00000000000006" as="targetPoint" />
            <Array as="points" />
          </mxGeometry>
        </mxCell>
        <mxCell id="_7fe_W0GbUUQAUtH2pbY-57" value="" style="endArrow=oval;html=1;rounded=0;endFill=1;startArrow=classic;startFill=1;startSize=3;endSize=5;exitX=0.005;exitY=0.537;exitDx=0;exitDy=0;exitPerimeter=0;strokeWidth=2;fillColor=#a20025;strokeColor=#6F0000;" edge="1" parent="1">
          <mxGeometry width="50" height="50" relative="1" as="geometry">
            <mxPoint x="398.15" y="570.74" as="sourcePoint" />
            <mxPoint x="315" y="292" as="targetPoint" />
            <Array as="points">
              <mxPoint x="315" y="571" />
            </Array>
          </mxGeometry>
        </mxCell>
        <mxCell id="_7fe_W0GbUUQAUtH2pbY-58" value="" style="edgeStyle=none;orthogonalLoop=1;jettySize=auto;html=1;rounded=0;startSize=5;startArrow=oval;startFill=1;endSize=3;entryX=0.018;entryY=0.59;entryDx=0;entryDy=0;entryPerimeter=0;strokeWidth=2;fillColor=#a20025;strokeColor=#6F0000;" edge="1" parent="1">
          <mxGeometry width="100" relative="1" as="geometry">
            <mxPoint x="315" y="430" as="sourcePoint" />
            <mxPoint x="397.53999999999996" y="430.00000000000006" as="targetPoint" />
            <Array as="points" />
          </mxGeometry>
        </mxCell>
        <mxCell id="_7fe_W0GbUUQAUtH2pbY-59" value="" style="endArrow=oval;html=1;rounded=0;endFill=1;startArrow=classic;startFill=1;startSize=3;endSize=5;exitX=0.033;exitY=0.6;exitDx=0;exitDy=0;exitPerimeter=0;strokeWidth=2;fillColor=#a20025;strokeColor=#6F0000;" edge="1" parent="1">
          <mxGeometry width="50" height="50" relative="1" as="geometry">
            <mxPoint x="397.99" y="601" as="sourcePoint" />
            <mxPoint x="294" y="324" as="targetPoint" />
            <Array as="points">
              <mxPoint x="294" y="601" />
            </Array>
          </mxGeometry>
        </mxCell>
        <mxCell id="_7fe_W0GbUUQAUtH2pbY-60" value="" style="edgeStyle=none;orthogonalLoop=1;jettySize=auto;html=1;rounded=0;startSize=6;endSize=3;strokeWidth=2;fillColor=#a20025;strokeColor=#6F0000;" edge="1" parent="1">
          <mxGeometry width="100" relative="1" as="geometry">
            <mxPoint x="240" y="353" as="sourcePoint" />
            <mxPoint x="399" y="352" as="targetPoint" />
            <Array as="points" />
          </mxGeometry>
        </mxCell>
        <mxCell id="_7fe_W0GbUUQAUtH2pbY-61" value="" style="edgeStyle=none;orthogonalLoop=1;jettySize=auto;html=1;rounded=0;startSize=6;endSize=3;entryX=0;entryY=0.5;entryDx=0;entryDy=0;strokeWidth=2;fillColor=#a20025;strokeColor=#6F0000;" edge="1" parent="1">
          <mxGeometry width="100" relative="1" as="geometry">
            <mxPoint x="243" y="386" as="sourcePoint" />
            <mxPoint x="399" y="488" as="targetPoint" />
            <Array as="points">
              <mxPoint x="276" y="386" />
              <mxPoint x="276" y="488" />
            </Array>
          </mxGeometry>
        </mxCell>
        <mxCell id="_7fe_W0GbUUQAUtH2pbY-62" value="" style="edgeStyle=none;orthogonalLoop=1;jettySize=auto;html=1;rounded=0;startSize=5;startArrow=oval;startFill=1;endSize=3;entryX=0.018;entryY=0.59;entryDx=0;entryDy=0;entryPerimeter=0;strokeWidth=2;fillColor=#a20025;strokeColor=#6F0000;" edge="1" parent="1">
          <mxGeometry width="100" relative="1" as="geometry">
            <mxPoint x="294" y="458" as="sourcePoint" />
            <mxPoint x="397.46" y="457.91999999999996" as="targetPoint" />
            <Array as="points" />
          </mxGeometry>
        </mxCell>
        <mxCell id="_7fe_W0GbUUQAUtH2pbY-63" value="" style="edgeStyle=none;orthogonalLoop=1;jettySize=auto;html=1;rounded=0;startSize=6;endSize=3;entryX=0;entryY=0.5;entryDx=0;entryDy=0;strokeWidth=2;fillColor=#a20025;strokeColor=#6F0000;" edge="1" parent="1">
          <mxGeometry width="100" relative="1" as="geometry">
            <mxPoint x="241" y="418" as="sourcePoint" />
            <mxPoint x="398" y="630" as="targetPoint" />
            <Array as="points">
              <mxPoint x="256" y="418" />
              <mxPoint x="256" y="630" />
            </Array>
          </mxGeometry>
        </mxCell>
      </root>
    </mxGraphModel>
  </diagram>
</mxfile>
